<?xml version="1.0" encoding="utf-8"?>
<!-- Generator: Adobe Illustrator 23.0.3, SVG Export Plug-In . SVG Version: 6.00 Build 0)  -->
<svg version="1.1" id="Layer_1" xmlns="http://www.w3.org/2000/svg" xmlns:xlink="http://www.w3.org/1999/xlink" x="0px" y="0px"
	 viewBox="0 0 100 100" style="enable-background:new 0 0 100 100;" xml:space="preserve">
<style type="text/css">
	.st0{fill:#6A6A6A;}
</style>
<g>
	<path class="st0" d="M46.7,6.8c10.1,0,20.1,0,30.2,0c5,0,8.8,3,9.7,7.8c0.7,3.5-0.3,6.5-2.9,9c-8,7.6-16.1,15.1-24.2,22.6
		c-0.9,0.8-1.7,1.7-2.6,2.5c-0.6,0.5-0.7,1-0.7,1.7c0.1,13.5,0.1,27,0.1,40.5c0,0.5,0,1-0.1,1.5c-0.3,1.4-1.6,2.3-3.1,2.2
		c-1.4-0.1-2.5-1.2-2.7-2.7c0-0.3,0-0.6,0-0.9c0-14.4-0.1-28.8-0.1-43.2c0-0.7,0.2-1.2,0.7-1.7c9.5-8.9,19-17.8,28.5-26.7
		c1.4-1.3,1.7-2.8,1.1-4.3c-0.6-1.6-1.8-2.4-3.8-2.4c-20.1,0-40.3,0-60.4,0c-1.9,0-3.1,0.8-3.8,2.4c-0.6,1.6-0.2,3,1.1,4.3
		c9.2,8.8,18.4,17.6,27.7,26.3c0.5,0.5,0.7,1,0.7,1.7c0,10.5,0.1,21.1,0.2,31.6c0,1.8-1,3.1-2.5,3.3c-1.8,0.2-3.3-1.1-3.3-3.1
		c0-2.6,0-5.2,0-7.8c0-7.2-0.1-14.4-0.1-21.6c0-0.6-0.2-1.1-0.7-1.5C27,40,18.4,31.7,9.7,23.4c-3-2.8-3.9-6.8-2.5-10.5
		c1.5-3.8,4.8-6.1,9-6.1c4.6,0,9.1,0,13.7,0C35.5,6.8,41.1,6.8,46.7,6.8z"/>
	<path class="st0" d="M79.3,71.9c3.9,0,7.8,0,11.7,0c1.6,0,2.8,1.1,3,2.6c0.2,1.4-0.7,2.8-2.2,3.2c-0.3,0.1-0.7,0.1-1.1,0.1
		c-7.7,0-15.4,0-23.1,0c-1.9,0-3.2-1.2-3.2-2.9c0-1.8,1.3-3,3.3-3C71.5,71.9,75.4,71.9,79.3,71.9z"/>
	<path class="st0" d="M79.2,55.4c3.8,0,7.7,0,11.5,0c2,0,3.3,1.2,3.3,2.9c0,1.7-1.3,2.9-3.3,2.9c-7.7,0-15.4,0-23,0
		c-1.7,0-3-0.9-3.2-2.4c-0.3-1.4,0.4-2.7,1.7-3.2c0.5-0.2,1-0.2,1.5-0.2C71.5,55.4,75.4,55.4,79.2,55.4z"/>
	<path class="st0" d="M79.2,88.4c3.9,0,7.8,0,11.7,0c2.1,0,3.5,1.7,3,3.6c-0.3,1.2-1.1,1.9-2.3,2.1c-0.4,0.1-0.8,0.1-1.3,0.1
		c-7.4,0-14.9,0-22.3,0c-0.3,0-0.6,0-0.9,0c-1.7-0.2-2.8-1.4-2.8-3c0.1-1.6,1.3-2.8,2.9-2.8c3.7,0,7.5,0,11.2,0
		C78.8,88.4,79,88.4,79.2,88.4z"/>
</g>
</svg>
