<?xml version="1.0" encoding="utf-8"?>
<!-- Generator: Adobe Illustrator 23.0.3, SVG Export Plug-In . SVG Version: 6.00 Build 0)  -->
<svg version="1.1" id="Layer_1" xmlns="http://www.w3.org/2000/svg" xmlns:xlink="http://www.w3.org/1999/xlink" x="0px" y="0px"
	 viewBox="0 0 48 48" style="enable-background:new 0 0 48 48;" xml:space="preserve">
<style type="text/css">
	.st0{fill:#FFC107;}
</style>
<path class="st0" d="M41.8,21.2c-0.1-0.3-0.2-0.5-0.5-0.7c-0.2-0.2-0.5-0.3-0.8-0.3l-10.9-1l-4.2-10c-0.1-0.3-0.3-0.5-0.6-0.7
	c-0.3-0.2-0.5-0.2-0.8-0.2s-0.5,0.1-0.8,0.2c-0.3,0.1-0.5,0.4-0.6,0.7l-4.2,10l-10.9,1c-0.3,0-0.6,0.1-0.8,0.3
	c-0.2,0.2-0.4,0.4-0.5,0.7s-0.1,0.5,0,0.8c0.1,0.3,0.2,0.5,0.5,0.8l8.2,7.2l-2.5,10.6c-0.1,0.3,0,0.6,0.1,0.9
	c0.1,0.3,0.3,0.5,0.5,0.6c0.2,0.2,0.5,0.3,0.8,0.3c0.3,0,0.6-0.1,0.9-0.2l9.3-5.6l9.3,5.6c0.3,0.2,0.5,0.2,0.9,0.2
	c0.3,0,0.6-0.1,0.8-0.3c0.2-0.2,0.4-0.4,0.5-0.6c0.1-0.3,0.1-0.6,0.1-0.9L33.1,30l8.2-7.2c0.3-0.2,0.4-0.5,0.5-0.8
	C41.8,21.7,41.8,21.5,41.8,21.2z"/>
</svg>
